# xmcd
#
# Track frame offsets:
#	150
#	10550
#	23310
#	36057
#	50242
#	60920
#	72995
#	85855
#	97190
#	111220
#	125915
#	139552
#
# Disc length: 2023 seconds
#
# Revision: 1
# Processed by: cddbd v1.4PL0 Copyright (c) Steve Scherf et al.
# Submitted via: mwyoung-manual 1.0
#
DISCID=9907e50c
DTITLE=Freddy King - Freddy King Sings
DYEAR=1989
DGENRE=Blues
TTITLE0=See See Baby
TTITLE1=Lonesome Whistle Blues
TTITLE2=Takin' Care Of Business
TTITLE3=Have You Ever Loved A Woman
TTITLE4=You Know That You Love Me
TTITLE5=I'm Tore Down
TTITLE6=I Love The Woman
TTITLE7=Let Me Be
TTITLE8=It's Too Bad Things Are So Tough
TTITLE9=You've Got To Love Her With A Feeling
TTITLE10=If You Believe (In What You Do)
TTITLE11=You Mean, Mean Woman
EXTD=LABEL=Modern Blues Recordings\nID=MBCD-722\nUPC=091377072226
EXTT0=
EXTT1=
EXTT2=
EXTT3=
EXTT4=
EXTT5=
EXTT6=
EXTT7=
EXTT8=
EXTT9=
EXTT10=
EXTT11=
PLAYORDER=
